# xmcd
#
# Track frame offsets:
#	150
#	25814
#	47304
#	70754
#	101748
#	127100
#	144910
#	167152
#	195518
#	216893
#
# Disc length: 3160 seconds
# Revision: 2
# Processed by: cddbd v1.5.2PL0 Copyright (c) Steve Scherf et al.
# Submitted via: dBpowerAMP V12.0
#
DISCID=880c560a
DTITLE=Kenny Acosta - Full Moon on Blues Street
DYEAR=2007
DGENRE=Blues
TTITLE0=Nobody's Better Than You
TTITLE1=Hard Times
TTITLE2=Boogie Chillen
TTITLE3=Mr. Charlie
TTITLE4=Still Have the Blues for You
TTITLE5=Just to Have the Blues
TTITLE6=Louisiana
TTITLE7=Polk Salad
TTITLE8=The Thrill Is Gone
TTITLE9=House of the Rising Sun
EXTD=
EXTT0=
EXTT1=
EXTT2=
EXTT3=
EXTT4=
EXTT5=
EXTT6=
EXTT7=
EXTT8=
EXTT9=
PLAYORDER=
